<svg width="47" height="52" viewBox="0 0 47 52" fill="none" xmlns="http://www.w3.org/2000/svg">
<path fill-rule="evenodd" clip-rule="evenodd" d="M23.4179 27.8709C26.9583 31.4113 28.7169 34.3283 29.3729 36.5898C29.9991 38.7489 29.6393 40.3325 28.7891 41.5736C27.8733 42.9105 26.1968 44.1165 23.7693 44.9913C21.3651 45.8576 18.4083 46.3285 15.2252 46.3285L15.2252 51.514C18.8825 51.514 22.4524 50.9776 25.5271 49.8697C28.5784 48.7702 31.3332 47.0351 33.067 44.5042C33.8086 43.4215 34.3309 42.2397 34.6172 40.9777H47V34.7995H46.9999C42.9174 34.7995 39.6079 31.49 39.6079 27.4075C39.6079 23.325 42.9174 20.0154 46.9999 20.0154H47V13.8368H20.1522C19.7403 12.1255 19.9197 10.8015 20.3626 9.84375C21.5478 7.28043 25.5106 5.18545 31.9813 5.18545V0C24.9919 1.29158e-07 18.1771 2.21478 15.6559 7.66755C13.0557 13.2912 15.8836 20.3366 23.4179 27.8709ZM18.125 28.8623C22.6243 33.1842 23.8131 36.1159 23.9594 37.7966C24.0599 38.9518 23.7008 39.9721 22.8114 40.9777H0V34.7993C4.0825 34.7993 7.39202 31.4898 7.39202 27.4073C7.39202 23.3248 4.0825 20.0153 0 20.0153V13.8368H9.86615C9.86476 14.2025 9.88003 14.5762 9.91324 14.9578C10.2995 19.3966 13.0544 23.9917 18.125 28.8623Z" fill="#00B2FF"/>
</svg>
